<?xml version="1.0" standalone="no"?>
<!DOCTYPE svg PUBLIC "-//W3C//DTD SVG 20010904//EN"
 "http://www.w3.org/TR/2001/REC-SVG-20010904/DTD/svg10.dtd">
<svg version="1.0" xmlns="http://www.w3.org/2000/svg"
 width="512.000000pt" height="512.000000pt" viewBox="0 0 512.000000 512.000000"
 preserveAspectRatio="xMidYMid meet">

<g transform="translate(0.000000,512.000000) scale(0.100000,-0.100000)"
fill="#000000" stroke="none">
<path d="M3165 5009 c-153 -22 -275 -81 -383 -183 -83 -79 -131 -153 -172
-264 -56 -154 -64 -343 -20 -502 12 -41 59 -154 106 -250 140 -287 167 -378
167 -570 1 -100 -3 -126 -27 -195 -50 -147 -156 -291 -306 -417 -316 -265
-832 -468 -1375 -542 -175 -24 -214 -27 -413 -35 -155 -7 -196 -12 -233 -28
-63 -28 -93 -73 -93 -139 0 -51 -1 -52 -34 -58 -147 -23 -216 -153 -143 -267
49 -79 160 -157 381 -268 249 -127 470 -206 805 -291 194 -49 433 -96 630
-125 60 -8 113 -21 118 -28 4 -6 6 -55 3 -107 -5 -98 -14 -132 -81 -292 -20
-48 -39 -110 -42 -138 -11 -93 37 -169 139 -221 122 -62 392 -96 686 -85 356
13 473 58 496 190 5 25 18 47 37 63 80 67 77 184 -5 238 -14 9 -28 31 -32 48
-22 104 -104 134 -429 157 -88 7 -222 10 -297 8 -124 -3 -140 -5 -159 -24 -31
-32 -36 -96 -10 -133 27 -38 28 -38 329 -51 291 -13 302 -15 302 -45 0 -13 12
-37 26 -54 23 -28 24 -32 10 -47 -20 -20 -29 -56 -24 -94 4 -24 0 -30 -21 -35
-46 -13 -342 -20 -481 -13 -194 10 -360 49 -360 85 0 9 17 57 39 107 21 50 45
114 54 141 24 75 39 199 31 251 l-7 47 33 -6 c18 -4 137 -10 264 -13 404 -11
712 35 991 146 360 143 612 416 702 760 37 141 43 330 14 469 -47 229 -123
371 -399 745 -170 230 -225 319 -263 428 -46 132 -37 277 19 307 28 15 94 28
202 41 400 47 683 167 851 362 34 39 75 100 92 135 25 54 29 73 25 124 -5 63
-23 97 -70 132 -41 30 -110 32 -239 6 -163 -33 -388 -33 -472 0 -78 31 -103
54 -208 192 -98 128 -166 195 -252 247 -134 81 -328 116 -502 91z m263 -214
c134 -32 208 -89 337 -259 47 -63 106 -133 131 -156 96 -89 239 -131 440 -131
105 0 279 19 337 37 61 19 -103 -149 -196 -200 -143 -80 -330 -134 -551 -161
-164 -20 -207 -30 -279 -68 -115 -60 -161 -151 -160 -317 0 -130 26 -233 90
-358 51 -98 93 -161 282 -417 267 -361 334 -519 334 -775 0 -96 -6 -144 -22
-205 -102 -379 -421 -631 -911 -719 -311 -56 -731 -51 -1185 14 -361 51 -760
148 -1055 256 -203 75 -570 269 -555 294 3 6 28 10 54 10 80 0 151 17 171 42
31 37 34 74 12 117 l-21 39 22 6 c12 3 60 6 107 6 105 0 325 23 488 51 717
120 1347 448 1611 837 106 157 150 288 158 467 9 225 -26 360 -172 665 -52
107 -101 222 -110 255 -18 69 -20 221 -4 297 37 181 173 324 352 373 69 18
216 18 295 0z"/>
<path d="M3387 4495 c-76 -26 -112 -81 -105 -157 6 -58 31 -96 79 -120 69 -36
153 -13 197 52 20 29 23 45 20 93 -4 49 -9 62 -38 92 -19 19 -41 37 -49 39
-50 13 -70 13 -104 1z"/>
</g>
</svg>
