<?xml version="1.0" standalone="no"?>
<!DOCTYPE svg PUBLIC "-//W3C//DTD SVG 20010904//EN"
 "http://www.w3.org/TR/2001/REC-SVG-20010904/DTD/svg10.dtd">
<svg version="1.0" xmlns="http://www.w3.org/2000/svg"
 width="128.000000pt" height="128.000000pt" viewBox="0 0 128.000000 128.000000"
 preserveAspectRatio="xMidYMid meet">

<g transform="translate(0.000000,128.000000) scale(0.100000,-0.100000)"
fill="#000000" stroke="none">
<path d="M117 1114 c-17 -9 -30 -26 -34 -45 -5 -28 -7 -29 -24 -13 -21 19 -53
15 -57 -8 -2 -11 12 -27 37 -44 29 -19 44 -37 51 -63 5 -20 16 -45 23 -55 12
-16 10 -26 -9 -75 -43 -104 -28 -392 30 -577 32 -99 57 -134 96 -134 39 0 56
20 63 77 3 26 15 70 26 96 17 40 25 48 43 45 17 -2 28 -19 50 -75 36 -95 63
-131 105 -139 44 -8 65 9 59 50 -3 17 -8 55 -11 84 l-6 52 63 0 63 0 24 -63
c32 -85 65 -127 100 -127 44 0 51 16 51 117 0 116 17 125 43 23 23 -87 53
-134 90 -138 52 -6 58 9 51 123 l-7 103 55 16 c67 19 119 53 136 88 7 15 14
51 15 80 l2 52 -35 6 c-51 9 -56 14 -70 67 -10 43 -10 49 6 58 38 22 82 67 94
95 16 39 8 136 -13 157 -15 15 -19 13 -55 -24 -24 -25 -54 -44 -80 -50 -40
-10 -41 -10 -95 42 -103 97 -261 156 -417 156 -154 0 -292 -46 -376 -123 -41
-37 -43 -38 -53 -19 -17 31 -13 40 23 55 55 23 72 75 39 114 -24 29 -62 35
-96 16z m61 -62 c-2 -8 -13 -18 -25 -23 -18 -7 -23 -5 -23 9 0 10 5 23 11 29
15 15 41 5 37 -15z m546 -48 c79 -20 189 -78 239 -126 l39 -37 -26 -34 c-45
-59 -53 -117 -17 -117 12 0 24 15 36 46 17 45 61 84 96 84 8 0 37 11 62 24
l47 23 0 -22 c0 -42 -42 -89 -95 -106 -55 -19 -65 -32 -41 -58 9 -10 23 -40
31 -68 16 -55 36 -78 77 -88 26 -7 26 -8 14 -48 -9 -35 -19 -45 -56 -64 -57
-27 -182 -53 -254 -53 -65 0 -65 1 -68 -130 l-3 -85 -24 45 c-13 25 -31 67
-41 95 l-17 50 -134 6 c-74 4 -162 14 -197 23 -34 9 -67 14 -73 11 -17 -11
-59 -105 -73 -163 -7 -31 -17 -57 -22 -56 -16 1 -64 159 -79 261 -20 133 -20
306 1 366 33 97 150 190 280 221 81 20 222 20 298 0z m268 -761 c2 -43 2 -80
1 -82 -4 -7 -40 81 -48 116 -6 31 -2 35 37 42 3 0 8 -34 10 -76z m-495 49 c6
-4 15 -36 19 -71 5 -50 4 -62 -6 -56 -13 8 -60 103 -60 123 0 13 28 16 47 4z"/>
<path d="M1026 574 c-8 -21 1 -34 24 -34 22 0 33 23 17 39 -16 16 -34 14 -41
-5z"/>
</g>
</svg>
