<?xml version="1.0" standalone="no"?>
<!DOCTYPE svg PUBLIC "-//W3C//DTD SVG 20010904//EN"
 "http://www.w3.org/TR/2001/REC-SVG-20010904/DTD/svg10.dtd">
<svg version="1.0" xmlns="http://www.w3.org/2000/svg"
 width="500.000000pt" height="511.000000pt" viewBox="0 0 500.000000 511.000000"
 preserveAspectRatio="xMidYMid meet">

<g transform="translate(0.000000,511.000000) scale(0.100000,-0.100000)"
fill="#000000" stroke="none">
<path d="M4118 4850 c-15 -11 -32 -38 -38 -59 l-10 -37 -70 34 c-85 43 -152
51 -205 27 -20 -10 -39 -24 -42 -31 -8 -22 35 -176 70 -246 l32 -66 -39 -12
c-24 -7 -63 -34 -97 -67 -51 -48 -68 -58 -138 -78 -187 -53 -276 -146 -496
-522 -57 -98 -117 -194 -133 -214 -17 -19 -68 -60 -113 -91 -363 -241 -713
-323 -1143 -267 -153 20 -221 60 -422 248 -191 180 -281 229 -435 239 -88 5
-135 -11 -162 -57 -34 -59 -13 -116 87 -235 36 -44 65 -80 63 -82 -1 -1 -34 6
-72 16 -109 28 -284 43 -407 35 l-108 -7 52 -62 c142 -165 318 -311 448 -372
157 -74 161 -76 186 -120 14 -23 27 -64 30 -91 6 -45 4 -51 -31 -93 -39 -47
-147 -187 -158 -205 -4 -8 16 -9 61 -3 81 9 255 10 275 2 13 -5 13 -13 -5 -62
-13 -38 -21 -84 -21 -137 -1 -67 3 -89 26 -138 54 -119 137 -192 344 -307
l117 -65 13 -80 c26 -153 76 -277 144 -350 71 -77 142 -93 239 -55 65 26 155
82 201 127 l36 34 227 -113 c133 -67 226 -119 226 -127 0 -41 -97 -354 -135
-437 -25 -52 -45 -99 -45 -103 0 -8 109 -56 114 -50 2 2 14 28 26 57 12 28 25
52 29 52 3 0 35 -36 70 -80 36 -44 69 -80 75 -80 6 0 30 17 53 38 l42 37 -65
80 c-74 88 -74 88 19 100 l48 6 -6 37 c-4 20 -8 48 -11 63 l-5 25 -70 -9 c-38
-6 -71 -8 -74 -5 -2 2 4 33 15 68 10 36 26 91 34 123 l17 57 68 0 c63 0 69 -2
74 -22 3 -13 20 -108 38 -213 18 -104 37 -194 44 -200 6 -5 46 -112 89 -237
l78 -226 51 15 c29 8 55 18 59 22 5 4 -12 66 -36 139 -25 73 -39 129 -33 125
7 -3 60 -44 119 -90 60 -46 112 -83 116 -83 13 0 74 89 68 99 -4 5 -49 42
-101 82 -52 39 -95 74 -95 76 0 2 37 3 83 2 l82 -2 3 60 3 61 -53 5 c-29 4
-113 9 -186 13 -73 4 -134 10 -136 13 -3 4 -19 86 -36 183 l-32 177 171 186
c402 438 795 891 931 1075 35 47 76 112 92 146 86 184 135 584 126 1042 -2
122 -1 222 2 222 3 0 43 -13 88 -30 100 -36 132 -37 168 -6 33 28 35 67 9 145
l-16 49 44 65 c67 98 90 166 91 267 1 72 -3 94 -26 142 -30 65 -63 91 -109 86
-30 -3 -33 0 -40 29 -20 98 -117 180 -183 155 -17 -7 -32 -8 -34 -3 -13 38
-68 104 -105 126 -65 37 -106 42 -139 15z m106 -156 c10 -14 23 -60 31 -102 9
-56 19 -81 35 -94 41 -33 79 -18 111 43 16 32 23 38 34 29 20 -17 35 -99 35
-194 0 -78 1 -84 23 -90 47 -12 68 -6 102 32 l35 37 0 -52 c0 -55 -28 -142
-58 -181 l-18 -23 -54 83 c-122 188 -282 305 -430 316 -66 4 -73 7 -99 39 -30
36 -76 142 -66 151 7 7 60 -21 119 -63 29 -21 60 -35 78 -35 39 0 76 39 84 89
8 48 15 51 38 15z m-67 -350 c66 -31 171 -132 230 -219 42 -62 113 -197 113
-214 0 -6 -25 -1 -57 10 -61 21 -133 25 -164 9 -41 -23 -47 -54 -41 -242 l5
-177 -70 19 c-251 69 -397 155 -447 260 -41 90 -20 266 57 456 27 67 55 92
129 109 93 23 181 19 245 -11z m-555 -246 c-19 -77 -23 -112 -20 -203 3 -95 8
-118 31 -167 64 -131 237 -239 507 -313 l115 -32 3 -44 c5 -59 -15 -320 -34
-449 -19 -128 -57 -261 -90 -317 -78 -134 -386 -498 -891 -1055 l-225 -248
-129 0 -129 0 -223 111 c-122 61 -223 113 -225 114 -2 2 21 44 51 94 52 86
111 213 119 255 2 16 -8 23 -55 37 -54 16 -59 16 -64 1 -78 -228 -233 -427
-397 -507 -73 -37 -76 -37 -101 -21 -89 58 -155 258 -155 468 l0 98 -55 0
c-30 0 -58 0 -62 0 -5 0 -9 -10 -11 -24 l-3 -24 -82 46 c-155 86 -232 158
-262 243 -21 58 -19 96 11 190 28 88 27 134 -4 162 -25 23 -79 43 -134 51
l-47 7 21 34 c14 26 20 53 20 103 1 80 -13 129 -53 193 -36 56 -82 90 -180
131 -91 37 -184 98 -264 171 l-60 55 45 -4 c148 -16 268 -55 385 -125 43 -26
81 -46 83 -44 2 1 -3 41 -11 88 -21 120 -76 224 -189 355 -21 24 -38 47 -38
53 0 12 70 1 137 -22 72 -25 119 -59 256 -188 144 -136 203 -181 288 -221 116
-54 186 -64 449 -64 258 -1 342 11 535 75 174 57 459 213 553 302 40 39 96
122 187 282 91 160 179 288 241 350 52 53 123 95 160 95 20 0 20 0 -4 -92z"/>
<path d="M4057 4152 c-22 -25 -21 -75 1 -95 25 -22 75 -21 95 1 22 25 21 75
-1 95 -25 22 -75 21 -95 -1z"/>
<path d="M3918 2942 c-25 -178 -48 -240 -115 -312 -55 -60 -55 -61 -37 -81 11
-12 32 -30 47 -41 l28 -20 50 49 c58 56 101 138 128 243 22 87 44 257 36 271
-4 5 -32 9 -63 9 l-57 0 -17 -118z"/>
<path d="M1330 2950 l-40 -48 69 -46 c38 -25 73 -46 78 -46 5 0 21 24 35 54
l26 53 -63 41 -64 41 -41 -49z"/>
<path d="M1562 2821 l-21 -61 53 -15 c75 -22 161 -35 232 -35 70 0 221 24 264
43 l29 12 -24 55 c-14 33 -29 54 -37 52 -156 -42 -351 -40 -459 3 -13 5 -21
-6 -37 -54z"/>
<path d="M3640 2449 c-22 -28 -40 -54 -40 -59 0 -4 21 -23 46 -43 l46 -36 46
56 45 56 -24 19 c-13 10 -36 28 -51 39 l-27 20 -41 -52z"/>
</g>
</svg>
